<?xml version="1.0" encoding="UTF-8"?>
<svg width="225px" height="162px" viewBox="0 0 225 162" version="1.1" xmlns="http://www.w3.org/2000/svg" xmlns:xlink="http://www.w3.org/1999/xlink">
    <!-- Generator: Sketch 61 (89581) - https://sketch.com -->
    <title>Group</title>
    <desc>Created with Sketch.</desc>
    <defs>
        <linearGradient x1="-11.1833588%" y1="54.4597948%" x2="147.606358%" y2="63.6616996%" id="linearGradient-1">
            <stop stop-color="#D599F1" offset="0%"></stop>
            <stop stop-color="#7976FF" offset="100%"></stop>
        </linearGradient>
    </defs>
    <g id="页面-1" stroke="none" stroke-width="1" fill="none" fill-rule="evenodd">
        <g id="Artboard" transform="translate(-445.000000, -127.000000)">
            <g id="Group" transform="translate(440.000000, 117.000000)">
                <text id="840" font-family="PingFangSC-Medium, PingFang SC" font-size="64" font-weight="400" line-spacing="50" fill="#262626">
                    <tspan x="60" y="148">840</tspan>
                </text>
                <path d="M127.287787,24.9503496 C126.526562,24.8943184 125.761883,24.8463465 124.99874,24.807969 C124.242886,24.7695915 123.660457,24.1271522 123.688082,23.3707317 L124.092483,12.3391194 C124.120875,11.5688829 124.770449,10.9640535 125.540115,11.0016635 C126.513133,11.0496354 127.488453,11.1102718 128.458785,11.1831891 C129.2273,11.2407553 129.797452,11.9215722 129.729924,12.6895059 L128.766114,23.6861947 C128.700121,24.4403126 128.04249,25.0059969 127.287787,24.9503496 M108.440172,23.9609776 L107.177474,12.9946071 C107.089227,12.2289759 107.640578,11.5328081 108.407175,11.454518 C109.374438,11.3551203 110.348223,11.2683871 111.320473,11.1939348 C112.088605,11.1352172 112.754677,11.7220092 112.803788,12.491478 L113.507078,23.5077393 C113.555422,24.2633923 112.990258,24.9215664 112.236322,24.980284 C111.473946,25.0393854 110.711186,25.1076973 109.951879,25.1844523 C109.199095,25.2608235 108.526884,24.7131766 108.440172,23.9609776 M142.153166,27.1977359 C141.410357,27.0261885 140.662561,26.8630841 139.915916,26.7088066 C139.174642,26.5560641 138.696958,25.8318807 138.839687,25.0885086 L140.91771,14.2472486 C141.063125,13.4904444 141.797493,12.9915369 142.552195,13.1461982 C143.507947,13.3419234 144.464467,13.5510808 145.414464,13.7721352 C146.164946,13.9463691 146.624213,14.7066273 146.440429,15.4549886 L143.807219,26.1745918 C143.626505,26.9095209 142.890603,27.3685158 142.153166,27.1977359 M93.4746522,26.8611653 L90.5475415,16.2171657 C90.343039,15.4741773 90.7815876,14.702022 91.5266982,14.5066805 C92.4701725,14.260297 93.4201693,14.0246592 94.3705498,13.8028372 C95.1206483,13.6270683 95.8684447,14.1056357 96.034579,14.8586022 L98.4103385,25.6388419 C98.5734034,26.3779925 98.1160544,27.1144568 97.3793847,27.2879231 C96.6365762,27.4625407 95.8941514,27.6463689 95.1559471,27.8382564 C94.4238816,28.0286088 93.6757016,27.5907215 93.4746522,26.8611653 M156.503643,31.7036382 C155.792297,31.4184934 155.075578,31.1406403 154.357709,30.8719978 C153.649048,30.6064255 153.288387,29.8181516 153.543536,29.1054814 L157.264101,18.7128545 C157.523854,17.9867522 158.326133,17.606815 159.048223,17.8758412 C159.966758,18.2181685 160.882991,18.5731604 161.791166,18.938898 C162.505966,19.2267292 162.842839,20.0483915 162.546252,20.7595266 L158.294671,30.9468339 C158.003456,31.6453044 157.205781,31.9849453 156.503643,31.7036382 M79.1437425,32.0221714 L74.617445,21.9546019 C74.3012909,21.2515261 74.6159102,20.421037 75.3226526,20.1136333 C76.2124114,19.7271718 77.1109949,19.3503048 78.0114967,18.9861023 C78.7259128,18.6975035 79.5385514,19.0551818 79.8182557,19.7732248 L83.8250477,30.0587785 C84.0997641,30.7637732 83.7609728,31.562409 83.0596019,31.8467863 C82.3551616,32.1326986 81.652256,32.4274378 80.9554894,32.7294687 C80.2614085,33.0303483 79.4541414,32.7125826 79.1437425,32.0221714 M169.99122,38.3617506 C169.333589,37.9718352 168.669051,37.5880602 168.001061,37.2123445 C167.341511,36.8416178 167.10593,36.0069072 167.467359,35.3418252 L172.739534,25.6442147 C173.107486,24.9668519 173.958876,24.7147117 174.631087,25.091195 C175.484396,25.5693786 176.334252,26.0602268 177.173365,26.5591343 C177.8356,26.953655 178.042788,27.8171488 177.640306,28.4745554 L171.877401,37.8889398 C171.482592,38.5344494 170.641944,38.7478283 169.99122,38.3617506 M65.7670503,39.3234908 L59.7539846,30.0668378 C59.3346201,29.4205607 59.5180201,28.5520779 60.1691286,28.1402873 C60.991743,27.6202722 61.8235658,27.1090839 62.6588417,26.610944 C63.3203096,26.2164233 64.1782228,26.4455369 64.5642069,27.1125379 L70.09767,36.6635462 C70.4771316,37.3186502 70.264188,38.1595012 69.6153816,38.5482653 C68.9612037,38.9389482 68.3104788,39.3388418 67.6655092,39.7456433 C67.0255275,40.1489908 66.1791248,39.9582546 65.7670503,39.3234908 M182.30588,47.0047473 C181.715009,46.5188882 181.117233,46.0387857 180.515619,45.5667424 C179.920145,45.0993045 179.814632,44.2384971 180.273516,43.6363542 L186.962629,34.8563498 C187.42957,34.2438449 188.309353,34.1241071 188.916339,34.5992205 C189.68447,35.1998284 190.44723,35.8127171 191.199247,36.4328975 C191.793954,36.9229781 191.867237,37.8079633 191.369602,38.3966741 L184.24194,46.8247569 C183.753512,47.402722 182.890228,47.4856174 182.30588,47.0047473 M53.65037,48.5855165 L46.3005559,40.3508564 C45.787573,39.7759615 45.837068,38.8890575 46.4183463,38.383242 C47.1530975,37.7434891 47.8982082,37.1114117 48.6483066,36.491615 C49.2426302,36.0007668 50.125099,36.0967106 50.6081547,36.6969347 L57.5297796,45.2954135 C58.0040106,45.8848919 57.921519,46.7483856 57.3387059,47.2315584 C56.7512886,47.7178013 56.1677082,48.212871 55.591034,48.7140812 C55.0197314,49.2103022 54.1545283,49.1504333 53.65037,48.5855165 M193.164467,57.4192494 C192.65532,56.8508787 192.138117,56.2855781 191.615158,55.7283368 C191.097571,55.1764683 191.124045,54.3091369 191.668874,53.7837489 L199.613395,46.1216811 C200.168199,45.5863149 201.05604,45.6024335 201.583603,46.1635125 C202.251209,46.8734963 202.911143,47.5942257 203.559182,48.320328 C204.072548,48.895223 204.010392,49.7805919 203.429497,50.2871749 L195.105898,57.5351495 C194.535363,58.0325219 193.669776,57.9833987 193.164467,57.4192494 M43.075708,59.5856593 L34.5618025,52.5618093 C33.9670953,52.0713448 33.8819179,51.187511 34.3795535,50.599184 C35.0080248,49.8558118 35.6487739,49.1178125 36.2971966,48.3897913 C36.8097959,47.8145126 37.6964852,47.7749837 38.2654857,48.2946151 L46.4137422,55.7402338 C46.9723833,56.2510383 47.022262,57.1168347 46.5192547,57.6829029 C46.010876,58.2551114 45.5078688,58.8346116 45.0129189,59.4179496 C44.5233405,59.9947634 43.6592885,60.0672969 43.075708,59.5856593 M202.314133,69.357722 C201.897838,68.7191205 201.472718,68.0828215 201.041076,67.4530467 C200.612887,66.8286448 200.770964,65.975513 201.389459,65.5391608 L210.405988,59.1734849 C211.035227,58.7290735 211.910406,58.8791295 212.346652,59.5142771 C212.898004,60.3163669 213.44053,61.1284348 213.970011,61.9435729 C214.390143,62.5894662 214.194465,63.4556464 213.543357,63.8674369 L204.215278,69.76721 C203.57568,70.1717088 202.727359,69.9917183 202.314133,69.357722 M34.2947598,72.0656384 L24.8105223,66.4210758 C24.1486707,66.0265551 23.9292045,65.1661315 24.3313034,64.508725 C24.8416005,63.6747819 25.3641755,62.8454441 25.8951915,62.026852 C26.3145561,61.380575 27.1851307,61.2071087 27.8262635,61.6342502 L37.0093105,67.7569965 C37.6389328,68.1768464 37.8196471,69.0249891 37.4087236,69.6605205 C36.9939633,70.3025761 36.5849582,70.9515396 36.1843941,71.6043409 C35.7880505,72.2494667 34.9451009,72.4520999 34.2947598,72.0656384 M209.530042,82.5380906 C209.216958,81.8449929 208.895048,81.1534304 208.566233,80.4680082 C208.238568,79.7856563 208.524795,78.9666804 209.202378,78.629726 L219.084877,73.7151034 C219.775121,73.3720085 220.616536,73.6540831 220.951107,74.3487159 C221.372774,75.2244904 221.784081,76.1083243 222.182343,76.9940769 C222.498497,77.696769 222.173134,78.5230365 221.466392,78.8304403 L211.34601,83.2334909 C210.652312,83.535138 209.841592,83.2277342 209.530042,82.5380906 M27.5235383,85.7399254 L17.2865166,81.6154955 C16.5717168,81.3272804 16.2233335,80.5106072 16.5203034,79.799856 C16.8974629,78.8956821 17.2876676,77.9945784 17.6882317,77.1019177 C18.0032347,76.3988419 18.8373596,76.0937408 19.5360446,76.4180307 L29.5482287,81.0624757 C30.2346359,81.3810089 30.5431163,82.1915417 30.2342523,82.8823367 C29.9215514,83.5819586 29.6165241,84.287337 29.3199378,84.9950181 C29.0271884,85.692721 28.2256765,86.0227675 27.5235383,85.7399254 M214.642222,96.6748264 C214.438871,95.9395135 214.226311,95.2042006 214.005694,94.4731092 C213.786611,93.7489258 214.195233,92.9836784 214.916555,92.7549485 L225.435583,89.4157223 C226.169951,89.1820033 226.958417,89.5903399 227.182104,90.3279555 C227.466029,91.2612963 227.738059,92.2019288 227.996277,93.1421775 C228.201164,93.8855497 227.752256,94.6515646 227.006378,94.8469061 L216.329656,97.6411718 C215.597974,97.8326755 214.844039,97.4039989 214.642222,96.6748264 M22.9381537,100.279241 L12.188149,97.7804821 C11.4376668,97.6062483 10.9676563,96.852898 11.1518237,96.1041529 C11.384335,95.1566125 11.6310426,94.2083045 11.8884933,93.2672882 C12.0922285,92.5235322 12.8691847,92.0944718 13.6096911,92.3074669 L24.2161987,95.3577106 C24.9432763,95.5664842 25.3726165,96.3202183 25.1738692,97.0501583 C24.9735872,97.7862388 24.7813624,98.5265407 24.5983461,99.2668427 C24.4168645,100.001772 23.675207,100.450405 22.9381537,100.279241 M217.522524,111.430975 C217.433893,110.672252 217.336438,109.913145 217.230925,109.157108 C217.125413,108.407979 217.646837,107.714498 218.394633,107.598598 L229.301564,105.913826 C230.062789,105.796007 230.779507,106.31986 230.887706,107.083572 C231.023913,108.047998 231.148609,109.018949 231.259877,109.987597 C231.348508,110.753228 230.787181,111.441721 230.020968,111.520011 L219.042289,112.644855 C218.289504,112.721994 217.610003,112.18279 217.522524,111.430975 M20.6364449,115.355074 L9.63167527,114.527655 C8.86316005,114.470089 8.2838001,113.797332 8.35132814,113.029398 C8.43612188,112.059215 8.53396082,111.087113 8.64407757,110.12 C8.73117341,109.354369 9.43292794,108.810559 10.1972227,108.907271 L21.1463584,110.291163 C21.8972242,110.385956 22.4374486,111.065237 22.3530385,111.817436 C22.2674774,112.576543 22.190741,113.339104 22.1228293,114.100514 C22.0553012,114.854632 21.3911475,115.412257 20.6364449,115.355074 M230.460667,128.576891 L219.438632,128.023103 C218.682395,127.985493 218.093059,127.348811 218.120301,126.592774 C218.164808,125.373137 218.187445,124.14736 218.187445,122.932712 L218.187061,122.803763 L231.999616,122.803763 L232,122.932712 C232,124.36496 231.972375,125.811792 231.918276,127.25018 C231.889116,128.020033 231.230334,128.615268 230.460667,128.576891 M8.14912768,130.168022 C8.08735487,129.197071 8.03785988,128.221515 8.0010264,127.249029 C7.97148288,126.478793 8.58345581,125.835202 9.35350575,125.815246 L20.3862841,125.532787 C21.1429052,125.513215 21.7790501,126.103077 21.8085936,126.859497 C21.8389045,127.623977 21.8780401,128.390376 21.9256167,129.153704 C21.9724259,129.909357 21.3995885,130.560624 20.6448859,130.61819 L9.64049995,131.456738 C8.87198473,131.515456 8.19823899,130.937491 8.14912768,130.168022 M228.323942,145.380095 L217.514467,143.153433 C216.773576,143.001074 216.287835,142.282263 216.429797,141.538891 C216.573678,140.788611 216.709118,140.035261 216.834966,139.282294 C216.959662,138.536236 217.665254,138.031188 218.41305,138.145936 L229.322283,139.816893 C230.083892,139.93356 230.60992,140.648917 230.483688,141.409175 C230.324077,142.370532 230.151036,143.333423 229.966101,144.290942 C229.820302,145.047746 229.078645,145.535524 228.323942,145.380095 M10.5452223,147.156973 C10.3353482,146.203676 10.1373683,145.244239 9.95243349,144.286336 C9.80625061,143.529148 10.3134783,142.800743 11.0720178,142.664119 L21.9340577,140.709937 C22.6784009,140.576 23.3966538,141.062243 23.5413019,141.804847 C23.6863338,142.553208 23.8413413,143.302337 24.0044062,144.047244 C24.1659364,144.786779 23.699379,145.517487 22.9627094,145.689418 L12.2161578,148.201993 C11.4656756,148.377378 10.7113567,147.909556 10.5452223,147.156973 M223.629208,161.680938 L213.292045,157.814405 C212.583768,157.5496 212.214282,156.765164 212.469431,156.052494 C212.727265,155.331381 212.97781,154.604511 213.219146,153.875722 C213.457412,153.157679 214.231683,152.76738 214.953005,152.995342 L225.47587,156.322288 C226.210621,156.554472 226.620777,157.342362 226.379441,158.074221 C226.071728,159.006026 225.751354,159.936297 225.419852,160.858124 C225.159332,161.583459 224.351298,161.951116 223.629208,161.680938 M15.5196606,163.582543 C15.1651383,162.672613 14.8221265,161.75539 14.4925436,160.837401 C14.2316398,160.111682 14.6210771,159.313814 15.3493057,159.062441 L25.781238,155.460329 C26.4968051,155.213562 27.2810512,155.583521 27.5381182,156.29504 C27.79672,157.012315 28.0649137,157.729207 28.3407812,158.44111 C28.6139628,159.146872 28.2651958,159.940518 27.5638249,160.224128 L17.3310237,164.358536 C16.6166076,164.647135 15.7993648,164.300586 15.5196606,163.582543 M22.9523499,179.040616 C22.46469,178.19823 21.9862384,177.347785 21.5208321,176.493502 C21.1521136,175.816523 21.4141685,174.967996 22.0952042,174.608015 L31.8514723,169.447393 C32.5202301,169.093552 33.3520529,169.338401 33.7150161,170.002715 C34.0798978,170.6701 34.4539878,171.335566 34.8346005,171.994891 C35.212911,172.649995 34.9899917,173.488543 34.3400343,173.876156 L24.8611683,179.529546 C24.1993167,179.92445 23.3387178,179.707233 22.9523499,179.040616" id="Fill-1" fill="url(#linearGradient-1)" transform="translate(120.000000, 95.363234) rotate(5.400000) translate(-120.000000, -95.363234) "></path>
            </g>
        </g>
    </g>
</svg>