<?xml version="1.0" encoding="UTF-8"?>
<svg width="36px" height="40px" viewBox="0 0 36 40" version="1.1" xmlns="http://www.w3.org/2000/svg" xmlns:xlink="http://www.w3.org/1999/xlink">
    <!-- Generator: Sketch 52.2 (67145) - http://www.bohemiancoding.com/sketch -->
    <title>形状</title>
    <desc>Created with Sketch.</desc>
    <g id="Page-1" stroke="none" stroke-width="1" fill="none" fill-rule="evenodd">
        <path d="M35.2835379,32.8758064 C35.2835379,35.0322782 34.686104,36.7349895 33.4912405,37.9839546 C32.296377,39.2329103 30.7086755,39.8573857 28.728149,39.8573857 L7.26965921,39.8573857 C5.28912839,39.8573857 3.70143123,39.2329103 2.50656773,37.9839546 C1.31170423,36.734999 0.714270329,35.0322876 0.714270329,32.8758064 C0.714270329,31.9233648 0.742914363,30.9933883 0.800202343,30.0858722 C0.857490496,29.1783561 0.972066372,28.198963 1.14393083,27.1476833 C1.31579486,26.0964037 1.53267128,25.1215017 1.7945601,24.2229726 C2.05644849,23.3244435 2.40836082,22.4483795 2.85029922,21.5947759 C3.29223763,20.7411723 3.79964329,20.0133629 4.37252482,19.4113479 C4.94540635,18.8093328 5.64514036,18.3286209 6.47172258,17.9692073 C7.29830908,17.6097957 8.2108246,17.4300917 9.20927342,17.4300917 C9.3565855,17.4300917 9.70031227,17.6232757 10.2404602,18.0096417 C10.7806038,18.3960091 11.3903138,18.8273021 12.0695861,19.3035229 C12.7488584,19.7797437 13.6327309,20.211039 14.7212037,20.597404 C15.8096764,20.9837715 16.9022441,21.176954 17.9988981,21.176954 C19.0955564,21.176954 20.1881198,20.98377 21.2765925,20.597404 C22.3650653,20.2110366 23.2489378,19.7797437 23.9282101,19.3035229 C24.6074824,18.8273021 25.2171924,18.3960068 25.757336,18.0096417 C26.2974796,17.6232743 26.6412085,17.4300917 26.7885228,17.4300917 C27.7869716,17.4300917 28.6994871,17.6097976 29.5260736,17.9692073 C30.3526601,18.328619 31.0523899,18.8093328 31.6252714,19.4113479 C32.1981529,20.0133629 32.7055586,20.7411723 33.147497,21.5947759 C33.5894354,22.4483795 33.9413456,23.3244435 34.2032361,24.2229726 C34.4651245,25.1215017 34.6819988,26.0964037 34.8538654,27.1476833 C35.0257294,28.198963 35.1403057,29.1783608 35.1975939,30.0858722 C35.254882,30.9933883 35.2835259,31.9233648 35.2835259,32.8758064 L35.2835379,32.8758064 Z M27.4269077,9.57344432 C27.4269077,12.1759614 26.5062066,14.3979382 24.6648044,16.2393232 C22.8234023,18.0807253 20.6014427,19.0014264 17.9989256,19.0014264 C15.3964085,19.0014264 13.1744317,18.0807253 11.3330467,16.2393232 C9.49164461,14.397921 8.57094353,12.1759614 8.57094353,9.57344432 C8.57094353,6.97092723 9.49164461,4.74895042 11.3330467,2.90756547 C13.1744489,1.06616333 15.3964085,0.145462254 17.9989256,0.145462254 C20.6014427,0.145462254 22.8234195,1.06616333 24.6648044,2.90756547 C26.5062066,4.74896761 27.4269077,6.97092723 27.4269077,9.57344432 Z" id="形状" fill="#FFFFFF" fill-rule="nonzero"></path>
    </g>
</svg>